<svg width="30" height="30" viewBox="0 0 30 30" fill="none" xmlns="http://www.w3.org/2000/svg">
<circle cx="15" cy="15" r="15" fill="black"/>
<path d="M15 9C16.65 9 18 10.35 18 12C18 13.575 16.425 16.125 15 17.925C13.575 16.05 12 13.575 12 12C12 10.35 13.35 9 15 9ZM15 7.5C12.525 7.5 10.5 9.525 10.5 12C10.5 15.375 15 20.25 15 20.25C15 20.25 19.5 15.3 19.5 12C19.5 9.525 17.475 7.5 15 7.5ZM15 10.5C14.175 10.5 13.5 11.175 13.5 12C13.5 12.825 14.175 13.5 15 13.5C15.825 13.5 16.5 12.825 16.5 12C16.5 11.175 15.825 10.5 15 10.5ZM21 20.25C21 21.9 18.3 23.25 15 23.25C11.7 23.25 9 21.9 9 20.25C9 19.275 9.9 18.45 11.325 17.85L11.775 18.525C11.025 18.9 10.5 19.35 10.5 19.875C10.5 20.925 12.525 21.75 15 21.75C17.475 21.75 19.5 20.925 19.5 19.875C19.5 19.35 18.975 18.9 18.15 18.525L18.6 17.85C20.1 18.45 21 19.275 21 20.25Z" fill="white"/>
</svg>
