<svg width="30" height="30" viewBox="0 0 30 30" fill="none" xmlns="http://www.w3.org/2000/svg">
<circle cx="15" cy="15" r="15" fill="black"/>
<path d="M18.375 22.0313C12.6375 22.0313 7.96875 17.3625 7.96875 11.625C7.96904 10.5989 8.3433 9.60804 9.02148 8.83797C9.69966 8.0679 10.6353 7.5714 11.6531 7.44142C11.9555 7.4036 12.262 7.46555 12.526 7.61784C12.79 7.77013 12.997 8.00445 13.1156 8.28517L14.5289 11.5758C14.6222 11.7892 14.6608 12.0225 14.6412 12.2545C14.6215 12.4866 14.5443 12.7101 14.4164 12.9047L13.3336 14.55C13.8133 15.4565 14.556 16.1968 15.4641 16.6735L17.0883 15.5906C17.2836 15.4616 17.508 15.3832 17.7412 15.3623C17.9743 15.3414 18.2091 15.3788 18.4242 15.4711L21.7148 16.8844C21.9956 17.003 22.2299 17.2101 22.3822 17.474C22.5345 17.738 22.5964 18.0445 22.5586 18.3469C22.4286 19.3648 21.9321 20.3004 21.162 20.9785C20.392 21.6567 19.4011 22.031 18.375 22.0313V22.0313ZM11.6531 9.15001C11.0875 9.27217 10.5808 9.58443 10.2175 10.0348C9.85415 10.4851 9.65607 11.0464 9.65625 11.625C9.65811 13.9368 10.5773 16.1534 12.212 17.788C13.8466 19.4227 16.0632 20.3419 18.375 20.3438C18.9536 20.3439 19.5149 20.1459 19.9652 19.7825C20.4156 19.4192 20.7278 18.9125 20.85 18.3469L17.8969 17.0813L16.2656 18.1711C16.0627 18.3053 15.8286 18.3849 15.586 18.4022C15.3433 18.4194 15.1003 18.3737 14.8805 18.2695C13.5157 17.6086 12.4116 16.5095 11.7445 15.1477C11.6373 14.929 11.5892 14.686 11.6053 14.4429C11.6213 14.1998 11.7009 13.9652 11.8359 13.7625L12.9188 12.1031L11.6531 9.15001Z" fill="white"/>
</svg>
