<svg width="30" height="30" viewBox="0 0 30 30" fill="none" xmlns="http://www.w3.org/2000/svg">
<circle cx="15" cy="15" r="15" fill="black"/>
<path d="M14.9925 7.5C10.8525 7.5 7.5 10.86 7.5 15C7.5 19.14 10.8525 22.5 14.9925 22.5C19.14 22.5 22.5 19.14 22.5 15C22.5 10.86 19.14 7.5 14.9925 7.5ZM15 21C11.685 21 9 18.315 9 15C9 11.685 11.685 9 15 9C18.315 9 21 11.685 21 15C21 18.315 18.315 21 15 21Z" fill="white"/>
<path d="M15.375 11.25H14.25V15.75L18.1875 18.1125L18.75 17.19L15.375 15.1875V11.25Z" fill="white"/>
</svg>
